<?xml version="1.0" encoding="UTF-8" standalone="no"?>
<!-- Created with Inkscape (http://www.inkscape.org/) -->

<svg
   xmlns:dc="http://purl.org/dc/elements/1.1/"
   xmlns:cc="http://creativecommons.org/ns#"
   xmlns:rdf="http://www.w3.org/1999/02/22-rdf-syntax-ns#"
   xmlns:svg="http://www.w3.org/2000/svg"
   xmlns="http://www.w3.org/2000/svg"
   xmlns:sodipodi="http://sodipodi.sourceforge.net/DTD/sodipodi-0.dtd"
   xmlns:inkscape="http://www.inkscape.org/namespaces/inkscape"
   width="41.76889mm"
   height="8.4702625mm"
   viewBox="0 0 148.00001 30.012741"
   id="svg3595"
   version="1.1"
   inkscape:version="0.91 r13725">
  <defs
     id="defs3597" />
  <sodipodi:namedview
     id="base"
     pagecolor="#ffffff"
     bordercolor="#666666"
     borderopacity="1.0"
     inkscape:pageopacity="0.0"
     inkscape:pageshadow="2"
     inkscape:zoom="0.35"
     inkscape:cx="-153.85714"
     inkscape:cy="-256.4222"
     inkscape:document-units="px"
     inkscape:current-layer="layer1"
     showgrid="false"
     fit-margin-top="0"
     fit-margin-left="0"
     fit-margin-right="0"
     fit-margin-bottom="0"
     inkscape:window-width="1301"
     inkscape:window-height="744"
     inkscape:window-x="65"
     inkscape:window-y="24"
     inkscape:window-maximized="1" />
  <metadata
     id="metadata3600">
    <rdf:RDF>
      <cc:Work
         rdf:about="">
        <dc:format>image/svg+xml</dc:format>
        <dc:type
           rdf:resource="http://purl.org/dc/dcmitype/StillImage" />
        <dc:title></dc:title>
      </cc:Work>
    </rdf:RDF>
  </metadata>
  <g
     inkscape:label="Capa 1"
     inkscape:groupmode="layer"
     id="layer1"
     transform="translate(-123.14285,-245.92726)">
    <g
       id="g4974"
       style="display:inline;fill:#12afaf;fill-opacity:1"
       transform="translate(123.14285,245.92726)">
      <path
         id="path4950"
         d="m 47.2,24.9 0,-20.2 3.6,0 3.1,7.9 c 0.6,1.6 1.6,4.2 2.2,5.9 l 0.1,0 C 56.1,16.4 55.8,12.8 55.8,9.1 l 0,-4.4 3.5,0 0,20.2 -3.6,0 -3.1,-7.7 c -0.8,-2 -1.4,-4 -2,-6.1 l -0.1,0 c 0.1,2 0.2,5.2 0.2,9.2 l 0,4.6 -3.5,0 0,0 z"
         class="st0"
         inkscape:connector-curvature="0"
         style="fill:#ffffff;fill-opacity:1" />
      <path
         id="path4952"
         d="m 71.3,16 -4.6,0 0,5.5 5.2,0 0,3.4 -9.2,0 0,-20.2 8.8,0 0,3.4 -4.9,0 0,4.7 4.6,0 0.1,3.2 0,0 z"
         class="st0"
         inkscape:connector-curvature="0"
         style="fill:#ffffff;fill-opacity:1" />
      <path
         id="path4954"
         d="m 76.8,8.3 -3.6,0 0,-3.6 11.1,0 0,3.6 -3.6,0 0,16.6 -3.9,0 0,-16.6 z"
         class="st0"
         inkscape:connector-curvature="0"
         style="fill:#ffffff;fill-opacity:1" />
      <path
         id="path4956"
         d="m 89,24.9 -3.5,-20.3 4.1,0 1,8.1 c 0.3,2.3 0.5,4.6 0.7,7.1 l 0.1,0 c 0.3,-2.5 0.7,-4.7 1.1,-7.1 l 1.4,-8.1 3.2,0 1.4,8 c 0.4,2.3 0.7,4.5 1,7.2 l 0.1,0 c 0.3,-2.6 0.5,-4.8 0.8,-7.2 l 1,-8 3.8,0 -3.6,20.3 -4.1,0 -1.2,-6.6 C 96,16.4 95.7,14.1 95.4,11.7 l -0.1,0 c -0.4,2.4 -0.7,4.7 -1.1,6.7 L 92.8,25 89,24.9 l 0,0 z"
         class="st0"
         inkscape:connector-curvature="0"
         style="fill:#ffffff;fill-opacity:1" />
      <path
         id="path4958"
         d="m 119.3,14.4 c 0,7.6 -2.7,10.7 -6.6,10.7 -3.9,0 -6.4,-4.9 -6.4,-10.4 0,-5.5 2.2,-10.3 6.7,-10.3 4.5,0 6.3,5.4 6.3,10 z m -8.9,0.4 c 0,4.6 0.9,6.9 2.5,6.9 1.6,0 2.3,-3 2.3,-7.1 0,-4.1 -0.5,-6.8 -2.3,-6.8 -1.8,0 -2.5,2.6 -2.5,7 z"
         class="st0"
         inkscape:connector-curvature="0"
         style="fill:#ffffff;fill-opacity:1" />
      <path
         id="path4960"
         d="m 121.8,5 c 1.4,-0.3 2.9,-0.4 4.3,-0.4 2.2,0 4.1,0.3 5.4,1.5 1.1,1.1 1.7,2.6 1.6,4.2 0.1,2.2 -1.1,4.2 -3.1,5.1 l 0,0 c 1.4,0.5 2.1,1.8 2.5,4 0.3,1.9 0.7,3.7 1.3,5.5 l -4.1,0 c -0.5,-1.6 -0.8,-3.2 -1,-4.8 -0.4,-2.5 -1,-3.2 -2.3,-3.2 l -0.6,0 0,8.1 -3.9,0 -0.1,-20 0,0 z m 3.9,8.8 0.7,0 c 1.7,0 2.7,-1.4 2.7,-3.2 0,-1.8 -0.7,-2.9 -2.5,-3 l -0.9,0 0,6 0,0.2 z"
         class="st0"
         inkscape:connector-curvature="0"
         style="fill:#ffffff;fill-opacity:1" />
      <path
         id="path4962"
         d="m 135.9,4.7 3.9,0 0,9.1 0.1,0 1,-2.6 2.7,-6.5 4.3,0 -4.5,8.8 4.6,11.5 -4.3,0 -2.9,-8.4 -0.9,1.7 0,6.7 -4,0 0,-20.3 0,0 z"
         class="st0"
         inkscape:connector-curvature="0"
         style="fill:#ffffff;fill-opacity:1" />
      <g
         id="Logo"
         style="fill:#12afaf;fill-opacity:1">
        <g
           id="xamagon"
           style="fill:#12afaf;fill-opacity:1">
          <path
             d="M 9.9,0 C 9,0 8.1,0.5 7.6,1.3 L 0.3,13.9 c -0.4,0.8 -0.4,1.8 0,2.6 L 7.6,28.9 C 8.1,29.6 9,30.1 9.9,30 l 14.6,0 c 0.9,0.1 1.8,-0.4 2.3,-1.1 l 7.3,-12.5 c 0.5,-0.8 0.5,-1.8 0,-2.6 L 26.8,1.3 C 26.3,0.5 25.4,0 24.5,0 L 9.9,0 Z m 0.1,7.1 2.6,0 c 0.1,0.1 0.2,0.2 0.3,0.3 l 4.3,7.6 0,0.2 0,0 4.3,-7.7 c 0.1,-0.1 0.2,-0.2 0.3,-0.3 l 2.5,0 c 0.2,0.1 0.4,0.4 0.3,0.6 l -4.2,7.5 4.2,7.4 c 0.1,0.2 -0.1,0.4 -0.3,0.5 l 0,0 -2.5,0 -0.3,-0.2 -4.3,-7.5 -0.1,0 -4.3,7.5 -0.3,0.2 -2.5,0 c -0.2,0 -0.3,0 -0.4,-0.2 0,-0.1 0,-0.2 0.1,-0.3 L 13.9,15.3 9.7,7.8 C 9.6,7.6 9.7,7.4 9.9,7.3 l 0,0 0.1,-0.2 z"
             class="st1"
             id="Logo-2"
             inkscape:connector-curvature="0"
             style="fill:#12afaf;fill-opacity:1" />
        </g>
      </g>
    </g>
  </g>
</svg>
